<svg width="400" height="200" xmlns="http://www.w3.org/2000/svg">
    <defs>
    <!-- Gradient for shield -->
    <linearGradient id="shieldGradient" x1="0%" y1="0%" x2="100%" y2="100%">
    <stop offset="0%" style="stop-color:#2c5aa0;stop-opacity:1" />
    <stop offset="100%" style="stop-color:#1a3d73;stop-opacity:1" />
    </linearGradient>

    <!-- Gradient for path lines -->
    <linearGradient id="pathGradient" x1="0%" y1="0%" x2="100%" y2="0%">
    <stop offset="0%" style="stop-color:#4CAF50;stop-opacity:0.8" />
    <stop offset="50%" style="stop-color:#2196F3;stop-opacity:0.8" />
    <stop offset="100%" style="stop-color:#FF9800;stop-opacity:0.8" />
    </linearGradient>

    <!-- Drop shadow filter -->
    <filter id="dropshadow" x="-20%" y="-20%" width="140%" height="140%">
    <feGaussianBlur in="SourceAlpha" stdDeviation="3"/>
    <feOffset dx="2" dy="3" result="offset"/>
    <feComponentTransfer>
    <feFuncA type="linear" slope="0.3"/>
    </feComponentTransfer>
    <feMerge> 
    <feMergeNode/>
    <feMergeNode in="SourceGraphic"/> 
    </feMerge>
    </filter>
    </defs>

    <!-- Background -->
    <rect width="400" height="200" fill="#f8f9fa" stroke="#e9ecef" stroke-width="2"/>

    <!-- Shield (representing security/guard) -->
    <path d="M75 70 L75 55 Q75 50 80 50 L120 50 Q125 50 125 55 L125 70 Q125 85 100 95 Q75 85 75 70 Z" 
    fill="url(#shieldGradient)" 
    stroke="#1a3d73" 
    stroke-width="2" 
    filter="url(#dropshadow)"/>

    <!-- Lock symbol inside shield -->
    <rect x="92" y="65" width="16" height="12" fill="#ffffff" rx="1"/>
    <path d="M95 65 Q95 60 100 60 Q105 60 105 65" fill="none" stroke="#ffffff" stroke-width="2"/>
    <circle cx="100" cy="70" r="2" fill="#2c5aa0"/>

    <!-- Execution paths (representing symbolic execution) -->
    <!-- Main path -->
    <path d="M140 75 L180 75" stroke="url(#pathGradient)" stroke-width="4" stroke-linecap="round"/>

    <!-- Branching paths -->
    <path d="M180 75 L220 55" stroke="url(#pathGradient)" stroke-width="3" stroke-linecap="round"/>
    <path d="M180 75 L220 75" stroke="url(#pathGradient)" stroke-width="3" stroke-linecap="round"/>
    <path d="M180 75 L220 95" stroke="url(#pathGradient)" stroke-width="3" stroke-linecap="round"/>

    <!-- Further branching -->
    <path d="M220 55 L250 45" stroke="#4CAF50" stroke-width="2" stroke-linecap="round"/>
    <path d="M220 55 L250 65" stroke="#4CAF50" stroke-width="2" stroke-linecap="round"/>
    <path d="M220 75 L250 75" stroke="#2196F3" stroke-width="3" stroke-linecap="round"/>
    <path d="M220 95 L250 85" stroke="#FF9800" stroke-width="2" stroke-linecap="round"/>
    <path d="M220 95 L250 105" stroke="#FF9800" stroke-width="2" stroke-linecap="round"/>

    <!-- Highlighted path (taint-guided) -->
    <path d="M250 75 L290 75" stroke="#2196F3" stroke-width="4" stroke-linecap="round">
    <animate attributeName="opacity" values="0.5;1;0.5" dur="2s" repeatCount="indefinite"/>
    </path>

    <!-- Target/vulnerability point -->
    <circle cx="300" cy="75" r="8" fill="#e74c3c" stroke="#c0392b" stroke-width="2" filter="url(#dropshadow)"/>
    <circle cx="300" cy="75" r="4" fill="#ffffff"/>

    <!-- Taint flow indicators -->
    <circle cx="155" cy="75" r="3" fill="#ff6b6b">
    <animate attributeName="r" values="2;4;2" dur="1.5s" repeatCount="indefinite"/>
    </circle>
    <circle cx="200" cy="75" r="3" fill="#ff6b6b">
    <animate attributeName="r" values="2;4;2" dur="1.5s" begin="0.3s" repeatCount="indefinite"/>
    </circle>
    <circle cx="235" cy="75" r="3" fill="#ff6b6b">
    <animate attributeName="r" values="2;4;2" dur="1.5s" begin="0.6s" repeatCount="indefinite"/>
    </circle>

    <!-- Text -->
    <text x="200" y="140" font-family="Arial, sans-serif" font-size="24" font-weight="bold" 
    text-anchor="middle" fill="#2c3e50">TraceGuard</text>
    <text x="200" y="160" font-family="Arial, sans-serif" font-size="12" 
    text-anchor="middle" fill="#6c757d">Taint-Guided Symbolic Execution</text>

    <!-- Version or additional text -->
    <text x="200" y="180" font-family="Arial, sans-serif" font-size="10" 
    text-anchor="middle" fill="#adb5bd">Security-Focused Path Prioritization</text>
</svg>
